<svg xmlns="http://www.w3.org/2000/svg" viewBox="0 0 32 32" width="16px" height="16px" fill="currentColor">
<g id="_11-20" data-name="11-20">
<g id="Contract"><path d="M29.5,9.132a1,1,0,0,0-1.364.372L27,11.485V9.657a4.966,4.966,0,0,0-1.464-3.535L22.878,3.464A4.966,4.966,0,0,0,19.343,2H10A5.006,5.006,0,0,0,5,7V25a5.006,5.006,0,0,0,5,5H22a5.006,5.006,0,0,0,5-5V15.515L29.868,10.5A1,1,0,0,0,29.5,9.132Zm-5.374-1.6A3.047,3.047,0,0,1,24.5,8H22a1,1,0,0,1-1-1V4.5a3.047,3.047,0,0,1,.464.377ZM25,25a3,3,0,0,1-3,3H10a3,3,0,0,1-3-3V7a3,3,0,0,1,3-3h9V7a3,3,0,0,0,3,3h3v4.985L20.132,23.5a1,1,0,0,0,.372,1.364A.988.988,0,0,0,21,25a1,1,0,0,0,.869-.5L25,19.015Z"/><path d="M10,10h6a1,1,0,0,0,0-2H10a1,1,0,0,0,0,2Z"/><path d="M10,14H20a1,1,0,0,0,0-2H10a1,1,0,0,0,0,2Z"/><path d="M21,17a1,1,0,0,0-1-1H10a1,1,0,0,0,0,2H20A1,1,0,0,0,21,17Z"/><path d="M16.3,22.29a2.732,2.732,0,0,1-1.2.7c-.1-.068-.251-.209-.36-.307a2.9,2.9,0,0,0-2.283-1,3.424,3.424,0,0,0-2.285,1.763,1,1,0,0,0,1.664,1.11c.561-.841.863-.888.866-.888.125-.021.51.331.694.5A2.429,2.429,0,0,0,15,25a4.392,4.392,0,0,0,2.707-1.293A1,1,0,0,0,16.3,22.29Z"/></g></g>
</svg>
